<?xml version="1.0" standalone="no"?>
<!DOCTYPE svg PUBLIC "-//W3C//DTD SVG 20010904//EN"
 "http://www.w3.org/TR/2001/REC-SVG-20010904/DTD/svg10.dtd">
<svg version="1.0" xmlns="http://www.w3.org/2000/svg"
 width="1600.000000pt" height="1059.000000pt" viewBox="0 0 1600.000000 1059.000000"
 preserveAspectRatio="xMidYMid meet">

<g transform="translate(0.000000,1059.000000) scale(0.100000,-0.100000)"
fill="#000000" stroke="none">
<path d="M0 9035 l0 -1555 39 20 c289 147 617 286 1216 515 184 70 736 246
1115 355 36 10 148 43 250 74 226 67 471 140 565 167 39 11 81 24 95 29 28 10
316 98 555 170 88 27 198 60 245 75 47 14 121 37 165 50 172 51 245 75 365
118 133 47 602 237 871 353 42 18 139 58 215 89 76 31 156 65 178 75 23 11 82
35 131 55 50 20 104 43 120 50 17 8 75 33 130 55 101 41 112 46 175 73 19 8
172 72 340 142 327 136 401 167 467 196 24 11 46 19 49 19 4 0 32 11 63 25 31
13 135 56 231 95 96 39 184 75 195 80 16 7 497 197 565 223 8 3 -1865 6 -4162
6 l-4178 1 0 -1555z"/>
<path d="M11430 10585 c0 -6 151 -217 251 -349 127 -169 134 -179 189 -261 30
-44 57 -82 60 -85 3 -3 23 -30 45 -60 21 -30 76 -102 122 -160 46 -58 93 -116
103 -130 11 -14 41 -65 67 -115 27 -53 101 -160 182 -265 75 -96 159 -204 186
-240 27 -36 57 -74 67 -85 9 -11 43 -55 75 -97 32 -42 142 -184 244 -315 102
-131 224 -288 270 -349 46 -61 131 -171 189 -246 296 -382 472 -617 757 -1016
36 -51 88 -111 115 -134 27 -22 63 -61 80 -87 18 -25 37 -51 43 -57 5 -6 44
-57 85 -114 68 -92 145 -191 384 -490 42 -52 87 -108 100 -125 l23 -30 184 0
c101 0 311 2 467 3 l282 2 0 2405 0 2405 -2285 0 c-1257 0 -2285 -2 -2285 -5z"/>
<path d="M4721 5764 c0 -11 3 -14 6 -6 3 7 2 16 -1 19 -3 4 -6 -2 -5 -13z"/>
<path d="M4840 5751 c0 -6 4 -13 10 -16 6 -3 7 1 4 9 -7 18 -14 21 -14 7z"/>
<path d="M4760 5690 c13 -23 20 -26 20 -6 0 8 -7 16 -15 20 -13 4 -14 2 -5
-14z"/>
<path d="M2212 5584 c11 -23 13 -24 19 -7 3 10 1 21 -5 25 -21 14 -26 8 -14
-18z"/>
<path d="M2254 5581 c7 -11 46 -35 46 -28 0 3 -12 12 -26 22 -15 9 -23 12 -20
6z"/>
<path d="M2335 5525 c31 -25 59 -33 53 -14 -2 6 -21 17 -43 25 l-39 13 29 -24z"/>
<path d="M1998 5523 c7 -3 16 -2 19 1 4 3 -2 6 -13 5 -11 0 -14 -3 -6 -6z"/>
<path d="M4920 5520 c0 -8 5 -22 10 -30 9 -13 10 -13 10 0 0 8 -5 22 -10 30
-9 13 -10 13 -10 0z"/>
<path d="M2100 5497 c0 -19 16 -31 24 -18 3 5 -1 14 -9 21 -12 10 -15 10 -15
-3z"/>
<path d="M4860 5496 c0 -2 8 -10 18 -17 15 -13 16 -12 3 4 -13 16 -21 21 -21
13z"/>
<path d="M3160 5471 c0 -5 5 -13 10 -16 6 -3 10 -2 10 4 0 5 -4 13 -10 16 -5
3 -10 2 -10 -4z"/>
<path d="M4935 5407 c29 -36 41 -42 30 -16 -3 8 -18 23 -32 33 l-27 20 29 -37z"/>
<path d="M2140 5421 c0 -6 4 -13 10 -16 6 -3 7 1 4 9 -7 18 -14 21 -14 7z"/>
<path d="M2890 5410 c-13 -8 -12 -10 3 -10 9 0 17 5 17 10 0 12 -1 12 -20 0z"/>
<path d="M2840 5390 c0 -5 5 -10 10 -10 6 0 10 5 10 10 0 6 -4 10 -10 10 -5 0
-10 -4 -10 -10z"/>
<path d="M1991 5354 c0 -11 3 -14 6 -6 3 7 2 16 -1 19 -3 4 -6 -2 -5 -13z"/>
<path d="M13890 4808 c0 -9 -6 -23 -13 -30 -27 -27 -281 -522 -289 -562 -2
-14 4 -19 29 -21 18 -1 36 2 41 9 5 6 40 78 77 160 38 82 71 144 72 139 3 -9
-66 -263 -84 -309 -3 -8 -1 -14 4 -14 8 0 94 285 108 360 3 19 16 64 28 100
18 56 22 62 27 40 8 -29 6 -47 -26 -235 -53 -307 -53 -313 -19 -285 13 11 15
8 15 -15 0 -24 2 -26 16 -14 14 11 15 7 13 -39 -2 -28 0 -55 4 -58 4 -4 7 -1
8 7 0 8 2 23 4 34 14 75 25 146 30 185 2 25 12 104 20 175 8 72 15 183 14 247
-1 111 -2 116 -19 106 -15 -10 -22 -8 -39 13 -16 19 -20 21 -21 7z m51 -363
l-9 -60 -1 55 c0 30 3 73 7 95 l7 40 3 -35 c1 -19 -2 -62 -7 -95z"/>
<path d="M14000 4175 c0 -9 6 -12 15 -9 8 4 15 10 15 15 0 5 -7 9 -15 9 -8 0
-15 -7 -15 -15z"/>
<path d="M13561 4163 c-5 -10 -10 -22 -11 -28 -5 -20 -13 -41 -30 -80 -31 -69
-125 -310 -230 -589 -115 -306 -105 -278 -194 -531 -38 -104 -78 -217 -91
-250 -12 -33 -51 -141 -85 -240 -34 -99 -91 -261 -125 -360 -105 -298 -260
-760 -310 -920 -26 -82 -55 -170 -65 -195 -10 -25 -34 -99 -55 -165 -20 -66
-56 -181 -81 -255 -24 -74 -60 -187 -80 -250 -20 -63 -49 -150 -65 -193 -38
-103 -38 -107 9 -107 l38 0 33 103 c122 377 492 1473 595 1762 32 88 73 207
93 265 19 58 38 109 41 115 6 10 82 228 137 392 40 119 154 424 165 438 4 6
10 23 14 38 4 18 11 25 19 20 8 -5 8 -2 -1 9 -7 9 -9 19 -4 22 5 3 19 36 32
73 36 110 130 376 140 398 4 11 26 67 48 125 22 58 51 131 65 163 l26 57 -24
0 c-13 0 -30 3 -39 6 -29 11 -17 24 23 24 38 0 68 19 42 28 -8 3 -7 8 5 16 21
16 11 36 -19 37 -13 1 -8 4 12 8 38 7 55 31 22 31 -31 0 -26 18 6 22 14 2 28
9 31 16 6 20 -75 16 -87 -5z"/>
<path d="M13717 4163 c-2 -4 -7 -26 -10 -48 l-6 -40 14 44 c13 40 14 65 2 44z"/>
<path d="M13806 4121 c-4 -5 -2 -12 3 -15 5 -4 12 -2 15 3 4 5 2 12 -3 15 -5
4 -12 2 -15 -3z"/>
<path d="M13684 4053 c-16 -49 -27 -73 -34 -73 -5 0 -6 -8 -4 -17 8 -29 -140
-506 -403 -1308 -138 -418 -194 -575 -205 -569 -4 3 -8 -2 -8 -11 0 -9 -9 -36
-20 -60 -11 -25 -19 -48 -19 -52 1 -4 -5 -25 -14 -45 -10 -21 -17 -46 -17 -57
0 -11 -4 -22 -9 -26 -10 -5 -44 -112 -39 -118 2 -2 -2 -10 -8 -18 -7 -8 -15
-34 -19 -59 -4 -25 -13 -52 -20 -60 -7 -8 -20 -46 -30 -85 -10 -38 -22 -74
-27 -79 -4 -6 -8 -20 -8 -33 0 -13 -5 -23 -10 -23 -6 0 -10 -6 -9 -12 4 -21
-11 -91 -28 -130 -9 -21 -17 -45 -18 -55 -1 -10 -5 -26 -9 -36 -5 -9 -6 -26
-3 -37 3 -10 1 -20 -4 -22 -5 -2 -17 -35 -25 -73 -9 -39 -23 -95 -31 -125 -9
-30 -18 -74 -20 -97 -3 -24 -9 -43 -13 -43 -4 0 -11 -21 -15 -47 -3 -27 -13
-58 -21 -70 -8 -12 -14 -33 -14 -47 0 -14 -4 -27 -9 -30 -5 -3 -12 -27 -16
-52 -4 -26 -11 -54 -15 -63 -11 -20 -50 -138 -50 -150 0 -6 -5 -22 -12 -38 -6
-15 -11 -31 -10 -35 1 -5 -2 -8 -7 -8 -5 0 -12 -19 -15 -43 -4 -23 -13 -60
-21 -82 -23 -65 -24 -65 68 -65 l84 0 38 128 c21 70 54 174 73 232 19 58 46
143 59 190 13 47 30 105 37 130 8 25 33 108 55 185 23 77 48 160 55 185 16 51
25 82 90 295 68 223 93 304 148 480 27 88 58 187 68 220 31 101 77 263 116
405 20 74 40 149 44 165 8 29 43 144 132 435 23 77 41 153 40 178 -1 23 3 40
8 37 4 -3 6 4 3 15 -4 15 -1 19 9 15 10 -4 23 26 50 122 20 71 39 151 42 178
3 28 8 66 11 85 7 42 -2 25 -35 -65 -32 -88 -82 -204 -75 -175 14 64 97 402
111 458 12 42 22 62 33 63 10 0 12 2 4 6 -14 5 -18 35 -6 46 7 8 14 57 7 57
-3 0 -7 -8 -10 -17z m-117 -715 c-3 -8 -6 -5 -6 6 -1 11 2 17 5 13 3 -3 4 -12
1 -19z"/>
<path d="M13978 4043 c7 -3 16 -2 19 1 4 3 -2 6 -13 5 -11 0 -14 -3 -6 -6z"/>
<path d="M13877 4005 c-4 -8 -2 -17 3 -20 6 -4 10 3 10 14 0 25 -6 27 -13 6z"/>
<path d="M14000 3990 c0 -5 5 -10 11 -10 5 0 7 5 4 10 -3 6 -8 10 -11 10 -2 0
-4 -4 -4 -10z"/>
<path d="M13965 3958 c8 -36 12 -44 20 -36 8 8 -7 68 -17 68 -6 0 -7 -14 -3
-32z"/>
<path d="M13764 3966 c-4 -11 -14 -14 -33 -11 -15 3 -20 2 -11 -2 21 -11 74
-46 80 -53 3 -4 13 -9 23 -13 22 -8 19 -21 -35 -177 -21 -63 -43 -131 -48
-150 -5 -19 -15 -61 -23 -93 -8 -33 -11 -60 -5 -63 10 -7 2 -60 -19 -124 -8
-25 -16 -54 -18 -65 -10 -60 -48 -260 -62 -327 -13 -64 -14 -80 -3 -93 7 -8
14 -14 16 -13 4 4 71 264 89 343 7 33 33 150 58 260 25 110 55 254 67 320 12
66 26 128 31 137 5 10 6 24 3 32 -3 8 -1 30 4 50 13 45 -3 47 -19 3 l-12 -34
-46 26 c-32 18 -41 27 -28 29 19 4 23 17 7 27 -6 3 -13 -1 -16 -9z"/>
<path d="M14030 3960 c0 -5 5 -10 11 -10 5 0 7 5 4 10 -3 6 -8 10 -11 10 -2 0
-4 -4 -4 -10z"/>
<path d="M13815 3940 c-3 -5 -1 -10 4 -10 6 0 11 5 11 10 0 6 -2 10 -4 10 -3
0 -8 -4 -11 -10z"/>
<path d="M13951 3913 c-1 -34 2 -41 14 -37 16 7 21 24 6 24 -5 0 -12 12 -14
28 -3 19 -4 15 -6 -15z"/>
<path d="M13988 3880 c-2 -6 -14 -12 -26 -13 -17 -1 -25 -9 -29 -29 -3 -16
-10 -31 -14 -34 -5 -3 -9 -19 -9 -35 0 -99 -272 -1326 -355 -1599 -7 -25 -28
-103 -45 -175 -17 -71 -40 -159 -50 -195 -11 -36 -28 -96 -39 -135 -58 -212
-73 -262 -81 -280 -5 -11 -21 -62 -35 -113 -14 -51 -32 -112 -39 -135 -8 -23
-21 -67 -29 -97 -35 -129 -61 -218 -75 -260 -8 -25 -18 -61 -22 -80 -10 -45
-88 -309 -99 -335 -22 -52 -41 -113 -41 -133 0 -12 -4 -22 -8 -22 -7 0 -23
-46 -38 -113 -3 -15 -10 -30 -15 -33 -5 -3 -9 -18 -9 -35 l0 -29 419 0 419 0
6 26 c4 14 4 35 0 46 -3 11 -1 32 6 47 27 57 55 149 65 216 5 32 2 46 -15 67
-21 27 -14 43 13 32 12 -4 16 10 22 70 4 42 10 76 14 76 3 0 5 19 3 41 -3 28
0 44 9 50 12 7 11 14 -3 39 -17 30 -15 60 4 60 6 0 7 13 3 32 -6 25 -4 30 8
25 13 -5 15 3 14 46 -2 37 2 51 11 49 17 -3 15 25 -3 32 -15 5 -22 37 -7 34 4
0 15 2 25 7 15 6 16 10 5 16 -9 6 -6 9 12 10 20 1 18 3 -10 9 -30 6 -31 8 -9
9 15 0 30 8 33 17 9 22 8 24 -10 24 -10 0 -14 7 -12 22 2 13 9 22 16 20 6 -1
12 5 12 14 0 8 -5 12 -10 9 -6 -4 -5 5 2 19 8 19 8 32 0 51 -11 24 -2 42 17
31 5 -3 11 3 14 14 3 11 1 20 -3 20 -4 0 -6 9 -3 20 3 12 0 20 -7 20 -7 0 -6
6 4 16 24 23 20 31 -21 40 -28 5 -32 9 -18 12 11 2 22 8 25 12 3 3 14 12 25
18 11 6 14 12 8 12 -7 0 -13 5 -13 10 0 6 5 9 11 8 6 -2 13 12 15 30 3 23 0
32 -11 32 -8 0 -15 -7 -15 -15 0 -18 -16 -20 -26 -4 -4 7 1 16 10 21 14 8 14
11 2 24 -22 21 -45 18 -39 -6 4 -15 0 -20 -15 -20 -31 0 -41 20 -32 68 4 23 3
61 -2 85 -17 75 -21 127 -9 127 6 0 11 11 11 24 0 26 44 63 55 46 8 -13 45
-13 45 0 0 6 -10 10 -21 10 -20 0 -21 4 -16 63 3 34 8 70 12 80 6 13 1 18 -24
23 -34 7 -43 34 -11 34 11 0 20 -4 20 -10 0 -5 9 -10 20 -10 11 0 20 5 20 10
0 6 -9 10 -20 10 -27 0 -25 18 3 30 19 7 19 9 3 9 -35 2 -97 -22 -107 -41 -10
-19 -44 -24 -54 -8 -3 6 -1 10 5 10 7 0 10 6 7 14 -4 10 2 16 16 19 l22 4 -22
2 c-20 1 -23 7 -23 41 0 25 -5 40 -12 40 -8 0 -5 7 6 15 17 13 22 13 38 -2 17
-15 20 -15 41 5 13 12 26 22 30 22 17 0 44 38 36 51 -4 7 -5 17 -2 22 3 5 -5
6 -18 2 -33 -10 -36 -15 -19 -25 10 -7 11 -10 3 -10 -7 0 -13 -8 -13 -17 0
-14 -3 -14 -12 -5 -7 7 -13 18 -13 25 0 6 -8 13 -17 15 -10 2 -18 -1 -18 -7 0
-6 6 -11 13 -11 7 -1 4 -6 -6 -15 -16 -11 -21 -11 -36 3 -16 16 -15 19 10 45
15 15 34 27 41 27 8 0 19 5 26 12 9 9 12 8 12 -5 0 -9 7 -17 16 -17 10 0 14 6
10 15 -3 8 -1 15 4 15 6 0 10 18 10 40 0 22 -4 40 -10 40 -23 0 -7 20 23 28
l32 9 -42 7 c-48 9 -54 18 -20 34 l22 11 -23 0 c-19 1 -22 5 -17 21 4 11 2 20
-4 20 -6 0 -11 7 -11 16 0 8 4 12 10 9 5 -3 26 -3 47 1 l37 7 -52 23 c-29 13
-52 28 -52 34 0 6 -4 8 -10 5 -5 -3 -10 -19 -10 -36 0 -16 -4 -29 -8 -29 -4 0
-6 16 -4 36 3 24 0 40 -9 46 -10 7 -6 8 13 4 22 -5 26 -3 22 9 -5 11 -2 13 10
9 9 -3 16 -1 16 5 0 6 -5 11 -11 11 -22 0 -2 24 22 25 13 1 35 2 49 3 l25 3
-27 16 c-33 21 -44 66 -21 93 9 10 20 17 25 14 13 -9 9 -24 -7 -24 -8 0 -15
-4 -15 -10 0 -15 7 -12 40 12 35 25 39 38 10 31 -24 -6 -25 5 -4 35 18 26 8
29 -18 5 -11 -9 -18 -11 -18 -5 0 7 -9 12 -20 12 -11 0 -20 5 -20 10 0 6 8 10
19 10 21 0 35 36 17 45 -8 3 -8 7 2 11 21 10 13 22 -15 26 -38 4 -40 25 -3 22
37 -2 61 -20 53 -40 -6 -17 1 -18 26 -2 15 9 17 15 7 30 -9 15 -8 21 4 29 11
7 -1 9 -40 6 -30 -2 -43 -2 -27 0 25 4 39 23 17 23 -5 0 -10 5 -10 10 0 6 9
10 20 10 13 0 20 7 20 20 0 11 -5 20 -11 20 -8 0 -9 12 -4 38 4 20 7 45 6 55
0 21 25 23 33 2 3 -8 15 -15 26 -15 11 0 20 -6 20 -12 0 -8 7 -4 15 7 10 12
13 30 9 52 -4 19 -2 33 4 33 10 0 83 -56 93 -71 7 -12 97 0 106 14 12 19 4 76
-16 108 -13 20 -18 42 -15 56 4 16 1 25 -10 29 -9 3 -16 11 -15 18 3 24 -1 37
-11 31 -5 -3 -10 -2 -10 4 0 5 -10 11 -22 13 -14 2 -24 11 -26 24 -6 40 -112
57 -112 18 0 -8 -5 -12 -10 -9 -6 3 -14 -5 -19 -18 -8 -20 -41 -45 -45 -35 -1
2 -8 17 -17 33 -9 17 -20 44 -23 62 -4 17 -14 37 -22 44 -16 13 -18 47 -5 67
6 11 10 10 15 -4 6 -16 8 -16 16 -4 6 10 4 17 -5 23 -10 5 -15 24 -15 52 0 34
4 45 19 50 12 3 21 18 24 38 5 32 2 48 -5 27z m150 -350 c8 -16 20 -30 27 -30
23 0 28 -21 10 -38 -13 -13 -19 -14 -22 -4 -3 6 -10 12 -16 12 -18 1 -53 53
-39 58 7 2 12 10 12 18 0 24 14 16 28 -16z m-88 -57 c0 -7 -7 -13 -15 -13 -8
0 -15 6 -15 13 0 8 7 14 15 14 8 0 15 -6 15 -14z m65 -48 c22 -8 53 -15 69
-15 17 0 36 -9 47 -22 17 -19 20 -25 19 -43 -1 -3 6 -13 15 -21 32 -32 11 -64
-27 -42 -13 7 -27 13 -33 13 -5 1 -9 7 -7 14 1 7 -7 15 -18 18 -11 3 -20 12
-20 20 0 11 -4 11 -21 3 -26 -14 -49 3 -49 36 0 13 -3 23 -7 23 -21 -3 -33 2
-33 16 0 18 13 18 65 0z m-85 -106 c0 -11 -4 -17 -10 -14 -5 3 -10 13 -10 21
0 8 5 14 10 14 6 0 10 -9 10 -21z m-45 -79 c3 -5 -1 -10 -10 -10 -9 0 -13 5
-10 10 3 6 8 10 10 10 2 0 7 -4 10 -10z m-15 -110 c-6 -11 -21 -20 -33 -20
-22 0 -22 1 3 20 32 25 43 25 30 0z m-25 -131 c10 -14 1 -21 -19 -13 -9 3 -13
10 -10 15 7 12 21 11 29 -2z m-5 -210 c0 -5 -4 -9 -10 -9 -5 0 -10 7 -10 16 0
8 5 12 10 9 6 -3 10 -10 10 -16z m-36 -301 c2 -23 5 -50 8 -58 3 -8 3 -12 1
-7 -3 4 -16 7 -30 7 -24 0 -25 2 -20 37 4 21 11 39 17 41 5 2 10 11 10 20 0
33 11 2 14 -40z m-102 -358 c5 -34 -7 -41 -17 -10 -5 17 0 40 9 40 2 0 6 -13
8 -30z m122 -96 c20 -8 21 -28 2 -43 -12 -10 -19 -8 -37 10 -17 17 -19 23 -8
30 17 10 23 11 43 3z m-116 -15 c-2 -6 -8 -10 -13 -10 -5 0 -11 4 -13 10 -2 6
4 11 13 11 9 0 15 -5 13 -11z m62 -39 c23 -23 25 -30 9 -30 -7 0 -18 -8 -25
-17 -12 -16 -13 -15 -14 10 0 15 -7 30 -15 33 -22 9 -18 24 5 24 11 0 29 -9
40 -20z m-149 -13 c-13 -13 -26 -3 -16 12 3 6 11 8 17 5 6 -4 6 -10 -1 -17z
m210 -84 c-9 -16 -10 -14 -11 12 0 21 3 26 11 18 8 -8 8 -16 0 -30z m-34 6 c9
-9 8 -15 -2 -25 -7 -8 -17 -14 -22 -14 -9 0 -39 -61 -35 -72 1 -4 -13 -5 -31
-3 -25 4 -28 3 -12 -4 11 -5 14 -10 8 -10 -17 -1 -17 -21 0 -21 8 0 24 -8 36
-19 17 -15 19 -23 12 -42 -10 -24 -10 -24 -10 4 -1 20 -6 27 -22 27 -11 0 -18
4 -15 9 3 5 -5 12 -18 15 -24 6 -43 53 -22 53 42 -1 46 3 46 44 0 36 2 41 20
36 11 -3 18 -1 15 3 -3 5 3 13 12 19 23 13 27 13 40 0z m-140 -51 c-3 -7 -5
-2 -5 12 0 14 2 19 5 13 2 -7 2 -19 0 -25z m-17 -74 c0 -2 -8 1 -19 7 -11 8
-16 19 -13 31 4 16 6 16 18 -8 8 -14 14 -28 14 -30z m117 -197 c4 -24 2 -37
-6 -37 -11 0 -15 12 -12 42 1 9 -3 19 -9 23 -6 3 -7 11 -4 17 10 16 24 -5 31
-45z m63 -153 c0 -8 -5 -12 -10 -9 -6 4 -8 11 -5 16 9 14 15 11 15 -7z m40
-124 c0 -5 -4 -10 -10 -10 -5 0 -10 5 -10 10 0 6 5 10 10 10 6 0 10 -4 10 -10z
m-145 -190 c3 -5 1 -10 -4 -10 -6 0 -11 5 -11 10 0 6 2 10 4 10 3 0 8 -4 11
-10z m35 -604 c0 -3 -4 -8 -10 -11 -5 -3 -10 -1 -10 4 0 6 5 11 10 11 6 0 10
-2 10 -4z m-30 -106 c0 -5 -4 -10 -10 -10 -5 0 -10 5 -10 10 0 6 5 10 10 10 6
0 10 -4 10 -10z"/>
<path d="M14062 3859 c2 -6 8 -10 13 -10 5 0 11 4 13 10 2 6 -4 11 -13 11 -9
0 -15 -5 -13 -11z"/>
<path d="M14199 3823 c-6 -42 17 -113 37 -113 8 0 16 -11 20 -25 3 -14 11 -25
16 -25 6 0 5 -6 -2 -15 -10 -12 -9 -16 3 -21 9 -3 13 -12 10 -20 -3 -8 0 -14
6 -14 6 0 11 -12 11 -27 0 -26 19 -71 20 -48 0 6 7 1 15 -9 14 -19 15 -19 15
8 0 15 -7 40 -15 56 -11 22 -12 35 -4 59 9 26 8 36 -7 59 -10 15 -19 30 -19
34 0 4 -8 17 -17 28 -10 11 -18 27 -18 35 0 8 -13 21 -30 30 -33 17 -40 18
-41 8z"/>
<path d="M13972 3770 c0 -14 2 -19 5 -12 2 6 2 18 0 25 -3 6 -5 1 -5 -13z"/>
<path d="M8836 3701 c5 -5 33 -21 62 -36 30 -16 56 -33 58 -40 3 -6 -1 -32 -9
-56 -8 -24 -20 -69 -26 -99 -11 -53 -48 -209 -71 -300 -30 -119 -29 -117 -62
-128 l-33 -10 32 -1 c17 -1 33 -7 36 -13 3 -10 9 -10 26 0 12 7 85 21 164 32
343 48 476 143 412 295 -26 65 -143 157 -302 241 -108 57 -113 60 -113 92 0
36 -15 43 -25 11 -6 -18 -12 -20 -41 -15 -18 4 -46 13 -61 21 -31 17 -63 20
-47 6z m281 -168 c149 -92 203 -134 241 -190 27 -39 28 -77 3 -112 -29 -40
-151 -95 -266 -120 -55 -11 -126 -27 -158 -35 -31 -7 -60 -10 -62 -5 -6 9 0
37 39 184 15 55 31 123 37 150 10 55 50 195 55 195 2 0 52 -30 111 -67z"/>
<path d="M10536 3608 c-19 -40 -40 -104 -46 -143 -7 -38 -23 -123 -36 -188
-28 -138 -29 -148 -9 -141 8 4 15 10 15 15 0 5 9 28 19 52 11 23 29 85 40 137
11 52 30 138 42 190 12 52 23 107 26 123 10 50 -16 28 -51 -45z"/>
<path d="M7905 3639 c-138 -17 -331 -38 -397 -44 -37 -4 -70 -10 -73 -15 -8
-13 81 -23 151 -17 35 4 66 2 69 -2 3 -5 -28 -88 -69 -184 -41 -96 -79 -201
-85 -233 -27 -146 -6 -112 110 181 22 55 46 113 54 130 7 16 19 47 25 68 14
45 26 51 136 67 43 6 95 15 114 20 19 5 47 12 63 15 15 3 27 9 27 13 0 11 -42
11 -125 1z"/>
<path d="M13950 3640 c0 -5 5 -10 10 -10 6 0 10 5 10 10 0 6 -4 10 -10 10 -5
0 -10 -4 -10 -10z"/>
<path d="M11061 3631 c-12 -8 -12 -12 -2 -25 14 -17 56 -22 65 -8 13 22 -38
48 -63 33z"/>
<path d="M11619 3571 c-20 -36 -26 -40 -100 -56 -43 -9 -81 -20 -84 -25 -7
-11 59 -22 88 -15 14 4 28 2 31 -3 3 -6 -12 -57 -33 -114 -53 -136 -67 -215
-47 -262 24 -58 69 -70 135 -37 36 19 72 51 56 51 -5 0 -32 -7 -61 -16 -69
-22 -84 -16 -84 38 0 43 13 105 30 143 5 11 23 63 41 116 l32 97 88 27 c106
32 108 50 6 40 l-70 -7 6 31 c9 43 -7 39 -34 -8z"/>
<path d="M11238 3514 c-18 -9 -32 -28 -39 -55 -14 -45 -4 -84 36 -149 119
-192 121 -215 19 -247 -50 -15 -58 -16 -82 -2 -22 12 -28 24 -32 64 l-6 50
-13 -42 c-19 -58 -8 -91 36 -109 53 -23 153 -3 195 38 27 27 30 34 26 78 -4
34 -18 71 -49 122 -71 119 -79 136 -79 173 0 28 5 37 28 48 50 25 102 -4 102
-57 l1 -31 15 27 c13 25 13 31 0 57 -25 47 -104 65 -158 35z"/>
<path d="M11053 3488 c-13 -19 -29 -71 -53 -176 -16 -69 -20 -108 -15 -148 5
-45 24 -84 40 -84 2 0 4 22 3 49 0 27 5 73 11 102 15 78 20 108 26 164 3 28 8
62 11 78 6 28 -7 36 -23 15z"/>
<path d="M11864 3458 c-7 -11 21 -38 40 -38 22 0 39 18 33 34 -7 19 -62 22
-73 4z"/>
<path d="M9595 3448 c-86 -50 -139 -232 -105 -358 33 -121 196 -122 282 -1 33
46 69 139 74 192 5 56 -21 114 -63 140 -42 26 -121 27 -158 3 -23 -15 -25 -15
-19 0 3 9 12 16 19 16 8 0 17 5 20 10 8 14 -25 12 -50 -2z m158 -49 c15 -11
31 -38 38 -61 9 -36 7 -50 -16 -113 -43 -119 -97 -174 -173 -175 -29 0 -35 5
-52 43 -23 50 -25 101 -5 183 22 94 31 107 83 125 64 23 95 23 125 -2z"/>
<path d="M14315 3451 c-6 -11 9 -23 19 -14 9 9 7 23 -3 23 -6 0 -12 -4 -16 -9z"/>
<path d="M8040 3432 c-39 -21 -94 -103 -112 -167 -6 -22 -11 -71 -11 -110 -1
-116 41 -165 142 -165 40 0 57 6 93 33 88 67 146 192 132 284 -13 87 -104 141
-188 113 -19 -6 -40 -18 -48 -27 -12 -15 -10 -16 12 -9 120 35 174 4 173 -101
-1 -43 -45 -147 -81 -190 -29 -33 -87 -60 -119 -55 -46 6 -67 46 -67 122 2
114 46 224 109 264 47 31 20 37 -35 8z"/>
<path d="M11839 3174 c-10 -13 -10 -17 2 -25 38 -24 89 2 54 28 -25 17 -40 17
-56 -3z"/>
<path d="M10800 3169 c-47 -5 -112 -16 -145 -25 -33 -9 -92 -24 -130 -34 -74
-18 -208 -80 -189 -87 12 -4 60 7 354 76 239 57 251 61 245 71 -7 11 -14 11
-135 -1z"/>
<path d="M14019 2988 c-8 -30 -7 -49 3 -45 7 2 12 10 11 16 -2 6 2 11 8 11 5
0 7 5 4 10 -5 9 -24 14 -26 8z"/>
<path d="M14030 2921 c0 -12 39 -25 47 -17 4 3 -1 6 -11 6 -9 0 -14 5 -11 10
3 6 -1 10 -9 10 -9 0 -16 -4 -16 -9z"/>
<path d="M14071 2828 c0 -9 -9 -18 -18 -20 -11 -2 -14 -6 -8 -10 17 -11 37 8
32 28 -4 15 -5 16 -6 2z"/>
<path d="M13966 2675 c9 -14 20 -25 25 -25 5 0 9 11 9 25 0 20 -5 25 -25 25
-25 0 -25 -1 -9 -25z"/>
<path d="M14218 2583 c7 -3 16 -2 19 1 4 3 -2 6 -13 5 -11 0 -14 -3 -6 -6z"/>
<path d="M13950 2550 c0 -19 3 -21 12 -12 9 9 9 15 0 24 -9 9 -12 7 -12 -12z"/>
<path d="M13990 2550 c0 -19 3 -21 12 -12 9 9 9 15 0 24 -9 9 -12 7 -12 -12z"/>
<path d="M14000 2419 c0 -5 5 -7 10 -4 6 3 10 8 10 11 0 2 -4 4 -10 4 -5 0
-10 -5 -10 -11z"/>
<path d="M13980 2330 c0 -5 5 -10 10 -10 6 0 10 5 10 10 0 6 -4 10 -10 10 -5
0 -10 -4 -10 -10z"/>
<path d="M13408 2158 c-73 -251 -88 -306 -99 -336 -6 -18 -13 -57 -16 -88 -3
-30 -10 -57 -14 -60 -5 -3 -9 -16 -9 -29 0 -13 -4 -25 -10 -27 -5 -1 -16 -28
-24 -58 -39 -144 -46 -164 -55 -169 -18 -11 -43 -124 -29 -132 8 -5 5 -31 -12
-96 -13 -48 -27 -92 -32 -98 -4 -5 -8 -19 -8 -31 0 -12 -10 -43 -22 -70 -12
-27 -23 -51 -23 -54 -1 -3 -6 -16 -12 -30 -6 -14 -15 -34 -19 -45 -6 -18 -8
-17 -13 8 l-6 28 -12 -29 c-26 -57 -73 -206 -73 -228 0 -13 -4 -25 -9 -29 -5
-3 -13 -20 -17 -37 -3 -18 -10 -39 -14 -48 -10 -20 -87 -266 -95 -305 -3 -16
-10 -50 -15 -75 -4 -25 -11 -62 -15 -83 l-8 -38 44 3 44 3 52 160 c28 88 68
212 88 275 20 63 46 147 56 185 11 39 23 79 28 90 5 11 19 56 31 100 12 44 26
91 31 105 5 14 27 88 50 165 55 191 61 210 109 370 106 350 213 776 200 789
-7 7 -10 4 -10 -8 0 -16 -1 -16 -16 -2 -8 9 -16 16 -18 16 -1 0 -14 -42 -28
-92z"/>
<path d="M13960 2222 c0 -15 24 -32 45 -31 19 0 19 1 -2 11 -13 6 -23 15 -23
20 0 4 -4 8 -10 8 -5 0 -10 -4 -10 -8z"/>
<path d="M13900 2180 c0 -5 5 -10 10 -10 6 0 10 5 10 10 0 6 -4 10 -10 10 -5
0 -10 -4 -10 -10z"/>
<path d="M14033 2065 c1 -30 5 -35 24 -35 13 0 23 -5 23 -12 0 -6 2 -9 5 -6
11 10 -7 37 -21 31 -10 -4 -14 3 -14 26 0 17 -4 31 -9 31 -5 0 -9 -16 -8 -35z"/>
<path d="M13980 1906 c0 -8 5 -18 10 -21 6 -3 10 3 10 14 0 12 -4 21 -10 21
-5 0 -10 -6 -10 -14z"/>
<path d="M14026 1881 c-7 -11 3 -41 14 -41 11 0 21 30 14 41 -3 5 -9 9 -14 9
-5 0 -11 -4 -14 -9z"/>
<path d="M7593 1870 c-13 -5 -23 -14 -23 -21 0 -7 7 -8 18 -4 65 27 72 27 141
6 38 -12 83 -21 99 -21 39 0 82 16 82 31 0 7 -7 8 -17 4 -52 -21 -85 -22 -144
-4 -65 20 -120 23 -156 9z"/>
<path d="M14000 1811 c0 -14 -6 -21 -20 -21 -11 0 -20 7 -20 15 0 8 -9 15 -20
15 -28 0 -26 -36 3 -44 35 -9 97 -7 97 4 0 6 -4 10 -10 10 -5 0 -10 6 -10 14
0 8 -4 18 -10 21 -5 3 -10 -3 -10 -14z"/>
<path d="M14065 1817 c-4 -10 -5 -21 -1 -24 10 -10 18 4 13 24 -4 17 -4 17
-12 0z"/>
<path d="M1 1744 c0 -11 3 -14 6 -6 3 7 2 16 -1 19 -3 4 -6 -2 -5 -13z"/>
<path d="M13935 1720 c-14 -6 -15 -9 -5 -9 8 -1 20 -11 25 -23 11 -25 45 -37
45 -17 0 6 7 17 17 24 37 27 -30 47 -82 25z"/>
<path d="M0 1705 c0 -3 4 -13 10 -23 5 -9 21 -46 36 -82 14 -36 36 -87 49
-115 13 -27 35 -77 50 -110 15 -33 36 -78 46 -99 11 -22 19 -45 19 -52 0 -6 8
-22 19 -35 10 -13 22 -35 26 -49 4 -14 30 -72 57 -129 28 -57 54 -116 57 -129
4 -14 13 -28 20 -30 10 -3 10 0 3 14 -5 11 -7 25 -5 32 3 6 0 12 -7 12 -6 0
-8 5 -5 10 3 6 1 10 -4 10 -6 0 -11 11 -11 25 0 13 -8 28 -17 34 -10 5 -15 12
-11 16 3 4 -7 29 -23 56 -32 56 -35 65 -16 73 8 3 7 9 -7 20 -10 8 -18 27 -18
41 0 14 -6 25 -14 25 -9 0 -14 12 -14 33 0 24 -3 28 -10 17 -9 -13 -10 -13
-10 0 0 8 -9 26 -20 40 -11 14 -20 37 -20 53 0 17 -5 27 -15 27 -8 0 -15 5
-15 11 0 5 5 7 10 4 6 -4 1 9 -10 27 -32 53 -51 101 -46 114 3 7 -2 15 -10 18
-8 3 -14 15 -14 26 0 11 -4 20 -8 20 -5 0 -19 20 -31 45 -20 40 -41 66 -41 50z"/>
<path d="M14016 1617 c-21 -56 -21 -79 2 -75 13 3 16 12 15 42 -2 22 2 45 8
52 6 7 6 15 1 18 -5 3 -17 -14 -26 -37z"/>
<path d="M13920 1625 c0 -22 4 -25 40 -25 29 0 40 4 40 15 0 9 -9 15 -24 15
-14 0 -28 5 -31 10 -11 18 -25 10 -25 -15z"/>
<path d="M7908 1053 c6 -2 18 -2 25 0 6 3 1 5 -13 5 -14 0 -19 -2 -12 -5z"/>
<path d="M398 834 c-4 -3 0 -18 8 -32 8 -15 19 -40 24 -55 6 -16 14 -26 19
-23 4 3 -2 27 -14 53 -13 26 -21 51 -19 55 6 9 -10 11 -18 2z"/>
<path d="M450 701 c0 -6 5 -13 10 -16 6 -3 10 1 10 9 0 9 -4 16 -10 16 -5 0
-10 -4 -10 -9z"/>
<path d="M480 694 c0 -8 5 -12 10 -9 6 4 8 11 5 16 -9 14 -15 11 -15 -7z"/>
<path d="M470 664 c0 -5 8 -22 19 -37 13 -21 20 -24 24 -14 6 15 0 26 -25 46
-10 7 -18 10 -18 5z"/>
<path d="M510 581 c0 -16 54 -131 61 -131 4 0 5 15 3 33 -1 17 -3 37 -4 42 0
6 -5 3 -10 -5 -8 -12 -10 -9 -10 13 0 15 -4 27 -10 27 -5 0 -10 7 -10 15 0 8
-4 15 -10 15 -5 0 -10 -4 -10 -9z"/>
<path d="M586 408 c4 -7 13 -20 21 -29 8 -9 13 -20 12 -25 -3 -17 1 -34 9 -34
4 0 8 16 10 36 2 28 -1 35 -12 31 -8 -3 -16 2 -19 14 -3 10 -10 19 -17 19 -6
0 -8 -6 -4 -12z"/>
<path d="M640 300 c0 -6 8 -30 19 -53 10 -23 21 -49 24 -57 4 -8 11 -22 16
-30 22 -38 39 -77 45 -103 3 -15 11 -27 16 -27 6 0 10 -7 10 -15 0 -8 9 -15
20 -15 25 0 25 5 2 38 -10 15 -25 43 -32 62 -7 19 -20 43 -28 52 -8 10 -12 24
-8 33 3 9 2 14 -3 11 -11 -7 -43 59 -45 94 -1 17 -36 27 -36 10z"/>
</g>
</svg>
