<svg version="1.0" xmlns="http://www.w3.org/2000/svg"
 width="512.000000pt" height="512.000000pt" viewBox="0 0 512.000000 512.000000"
 preserveAspectRatio="xMidYMid meet">

<g transform="translate(0.000000,512.000000) scale(0.100000,-0.100000)"
fill="#000000" stroke="none">
<path d="M1205 5095 c-24 -23 -25 -28 -25 -179 l0 -154 -82 -7 c-121 -10 -203
-31 -293 -75 -173 -84 -294 -223 -362 -415 l-28 -80 -3 -1775 c-3 -1969 -7
-1845 63 -1995 84 -181 236 -317 430 -383 l80 -27 1575 0 1575 0 80 27 c194
66 346 202 430 383 70 150 66 26 63 1995 l-3 1775 -28 80 c-103 292 -331 464
-649 490 l-88 7 0 154 c0 151 -1 156 -25 179 -13 14 -35 25 -49 25 -73 0 -86
-31 -86 -215 l0 -145 -134 0 -135 0 -3 156 -3 156 -28 24 c-36 31 -71 31 -102
-1 -24 -24 -25 -28 -25 -180 l0 -155 -140 0 -140 0 0 155 c0 152 -1 156 -25
180 -31 32 -66 32 -102 1 l-28 -24 -3 -156 -4 -156 -133 0 -134 0 -3 161 c-3
155 -4 161 -27 180 -13 10 -36 19 -51 19 -15 0 -38 -9 -51 -19 -23 -19 -24
-25 -27 -180 l-3 -161 -134 0 -133 0 -4 156 -3 156 -28 24 c-36 31 -71 31
-102 -1 -24 -24 -25 -28 -25 -180 l0 -155 -140 0 -140 0 0 155 c0 152 -1 156
-25 180 -31 32 -66 32 -102 1 l-28 -24 -3 -156 -3 -156 -135 0 -134 0 0 145
c0 184 -13 215 -86 215 -14 0 -36 -11 -49 -25z m-25 -625 c0 -126 1 -132 25
-155 13 -14 35 -25 49 -25 71 0 86 34 86 190 l0 120 134 0 134 0 4 -131 c3
-129 3 -131 31 -155 36 -31 71 -31 102 1 24 23 25 29 25 155 l0 130 140 0 140
0 0 -130 c0 -126 1 -132 25 -155 31 -32 66 -32 102 -1 28 24 28 26 32 155 l3
131 133 0 133 0 4 -136 c3 -129 4 -137 27 -155 13 -10 36 -19 51 -19 15 0 38
9 51 19 23 18 24 26 27 155 l4 136 133 0 133 0 3 -131 c4 -129 4 -131 32 -155
36 -31 71 -31 102 1 24 23 25 29 25 155 l0 130 140 0 140 0 0 -130 c0 -126 1
-132 25 -155 31 -32 66 -32 102 -1 28 24 28 26 31 155 l4 131 134 0 134 0 0
-120 c0 -156 15 -190 86 -190 14 0 36 11 49 25 24 23 25 29 25 155 l0 130 53
0 c252 -1 479 -176 542 -417 22 -84 22 -3529 0 -3612 -46 -173 -179 -319 -350
-383 l-60 -23 -1539 -3 c-1353 -2 -1547 0 -1599 13 -199 51 -350 200 -402 396
-22 83 -22 3528 0 3612 25 98 72 176 150 253 107 106 238 161 388 163 l57 1 0
-130z"/>
<path d="M1769 3470 c-9 -5 -96 -138 -194 -294 l-177 -284 -132 93 c-145 102
-165 112 -198 94 -52 -28 -63 -81 -25 -122 28 -32 329 -243 357 -252 51 -16
68 4 279 342 148 236 204 334 204 356 0 54 -68 94 -114 67z"/>
<path d="M2271 3094 c-27 -35 -26 -50 4 -80 l24 -24 847 2 c824 3 846 3 860
22 20 28 17 63 -6 86 -20 20 -33 20 -864 20 l-845 0 -20 -26z"/>
<path d="M1768 2070 c-9 -6 -92 -131 -183 -278 -92 -147 -173 -273 -180 -281
-12 -12 -32 -1 -136 74 -67 48 -133 92 -146 98 -33 15 -90 -13 -99 -48 -14
-55 0 -70 178 -196 203 -145 217 -151 255 -123 43 32 426 650 426 687 0 54
-68 94 -115 67z"/>
<path d="M2270 1700 c-24 -24 -25 -48 -4 -78 l15 -22 853 0 c814 0 854 1 869
18 22 24 21 65 -1 85 -17 16 -91 17 -865 17 -834 0 -847 0 -867 -20z"/>
</g>
</svg>
